<svg id="visual" viewBox="0 0 960 540" width="960" height="540" xmlns="http://www.w3.org/2000/svg" xmlns:xlink="http://www.w3.org/1999/xlink" version="1.1"><rect x="0" y="0" width="960" height="540" fill="#ffffff"></rect><defs><linearGradient id="grad1_0" x1="43.8%" y1="0%" x2="100%" y2="100%"><stop offset="14.444444444444446%" stop-color="#e98a15" stop-opacity="1"></stop><stop offset="85.55555555555554%" stop-color="#e98a15" stop-opacity="1"></stop></linearGradient></defs><defs><linearGradient id="grad1_1" x1="43.8%" y1="0%" x2="100%" y2="100%"><stop offset="14.444444444444446%" stop-color="#e98a15" stop-opacity="1"></stop><stop offset="85.55555555555554%" stop-color="#fec38f" stop-opacity="1"></stop></linearGradient></defs><defs><linearGradient id="grad1_2" x1="43.8%" y1="0%" x2="100%" y2="100%"><stop offset="14.444444444444446%" stop-color="#ffffff" stop-opacity="1"></stop><stop offset="85.55555555555554%" stop-color="#fec38f" stop-opacity="1"></stop></linearGradient></defs><defs><linearGradient id="grad2_0" x1="0%" y1="0%" x2="56.3%" y2="100%"><stop offset="14.444444444444446%" stop-color="#e98a15" stop-opacity="1"></stop><stop offset="85.55555555555554%" stop-color="#e98a15" stop-opacity="1"></stop></linearGradient></defs><defs><linearGradient id="grad2_1" x1="0%" y1="0%" x2="56.3%" y2="100%"><stop offset="14.444444444444446%" stop-color="#fec38f" stop-opacity="1"></stop><stop offset="85.55555555555554%" stop-color="#e98a15" stop-opacity="1"></stop></linearGradient></defs><defs><linearGradient id="grad2_2" x1="0%" y1="0%" x2="56.3%" y2="100%"><stop offset="14.444444444444446%" stop-color="#fec38f" stop-opacity="1"></stop><stop offset="85.55555555555554%" stop-color="#ffffff" stop-opacity="1"></stop></linearGradient></defs><g transform="translate(960, 0)"><path d="M0 459C-83.8 449 -167.5 439 -229.5 397.5C-291.5 356 -331.7 283 -366.3 211.5C-401 140 -430 70 -459 0L0 0Z" fill="#ffe1c6"></path><path d="M0 306C-55.8 299.3 -111.7 292.7 -153 265C-194.3 237.3 -221.1 188.7 -244.2 141C-267.3 93.3 -286.7 46.7 -306 0L0 0Z" fill="#f6a758"></path><path d="M0 153C-27.9 149.7 -55.8 146.3 -76.5 132.5C-97.2 118.7 -110.6 94.3 -122.1 70.5C-133.7 46.7 -143.3 23.3 -153 0L0 0Z" fill="#e98a15"></path></g><g transform="translate(0, 540)"><path d="M0 -459C55.3 -404.6 110.7 -350.1 184 -318.7C257.3 -287.3 348.7 -278.8 397.5 -229.5C446.3 -180.2 452.7 -90.1 459 0L0 0Z" fill="#ffe1c6"></path><path d="M0 -306C36.9 -269.7 73.8 -233.4 122.7 -212.5C171.6 -191.5 232.4 -185.9 265 -153C297.6 -120.1 301.8 -60.1 306 0L0 0Z" fill="#f6a758"></path><path d="M0 -153C18.4 -134.9 36.9 -116.7 61.3 -106.2C85.8 -95.8 116.2 -92.9 132.5 -76.5C148.8 -60.1 150.9 -30 153 0L0 0Z" fill="#e98a15"></path></g></svg>