<svg version="1.2" xmlns="http://www.w3.org/2000/svg" viewBox="0 0 900 600" width="900" height="600">
	<title>blob-svg</title>
	<style>
		.s0 { fill: #ffe1c6 } 
		.s1 { fill: #f6a758 } 
		.s2 { fill: #e98a15 } 
	</style>
	<g id="Layer">
		<path id="Layer" class="s0" d="m486.7 0c-28.7 50.4-57.5 100.7-72.8 171.4-15.3 70.7-17.2 161.8-69.7 172.8-52.5 11-155.6-58.1-221.4-47.6-65.8 10.4-94.3 100.3-122.8 190.1v-486.7z"/>
		<path id="Layer" class="s1" d="m324.5 0c-19.2 33.6-38.3 67.2-48.6 114.3-10.2 47.1-11.5 107.8-46.4 115.2-35 7.3-103.7-38.7-147.6-31.8-43.9 7-62.9 66.9-81.9 126.8v-324.5z"/>
		<path id="Layer" class="s2" d="m162.2 0c-9.5 16.8-19.1 33.6-24.2 57.1-5.1 23.6-5.8 54-23.3 57.6-17.5 3.7-51.8-19.3-73.8-15.8-21.9 3.4-31.4 33.4-40.9 63.3v-162.2z"/>
	</g>
</svg>